# xmcd CD database file
#
# Track frame offsets:
#	150
#	33342
#	60030
#	79382
#	109637
#	126431
#	150778
#	166006
#	185188
#
# Disc length: 2845 seconds
#
# Revision: 0
# Processed by: cddbd v1.5.2PL0 Copyright (c) Steve Scherf et al.
# Submitted via: CDex 1.51
#
DISCID=640b1b09
DTITLE=Bill Evans - Toots Thielemans - Affinity
DYEAR=1996
DGENRE=Jazz
TTITLE0=I do if for your love
TTITLE1=Sno's peas
TTITLE2=This is all I ask
TTITLE3=The days of wine and roses
TTITLE4=Jesus' last ballad
TTITLE5=Tomato kiss
TTITLE6=The other side of midnight (Noelle's theme)
TTITLE7=Blue and green
TTITLE8=Body and soul
EXTD=YEAR: 1996
EXTT0=
EXTT1=
EXTT2=
EXTT3=
EXTT4=
EXTT5=
EXTT6=
EXTT7=
EXTT8=
PLAYORDER=
